<svg width="52" height="52" viewBox="0 0 52 52" fill="none" xmlns="http://www.w3.org/2000/svg">
<g filter="url(#filter0_d)">
<path d="M10 8.55556V33.4444C10 35.4 11.6 37 13.5556 37H38.4444C40.4 37 42 35.4 42 33.4444V8.55556C42 6.6 40.4 5 38.4444 5H13.5556C11.6 5 10 6.6 10 8.55556Z" fill="url(#paint0_linear)"/>
</g>
<path d="M31.3333 15.6668C31.3333 18.6891 29.0222 21.0002 26 21.0002C22.9777 21.0002 20.6666 18.6891 20.6666 15.6668C20.6666 12.6446 22.9777 10.3335 26 10.3335C29.0222 10.3335 31.3333 12.6446 31.3333 15.6668Z" fill="white"/>
<path d="M15.3334 29.889C15.3334 26.3335 22.4445 24.3779 26 24.3779C29.5556 24.3779 36.6667 26.3335 36.6667 29.889V31.6668H15.3334V29.889Z" fill="white"/>
<defs>
<filter id="filter0_d" x="0" y="0" width="52" height="52" filterUnits="userSpaceOnUse" color-interpolation-filters="sRGB">
<feFlood flood-opacity="0" result="BackgroundImageFix"/>
<feColorMatrix in="SourceAlpha" type="matrix" values="0 0 0 0 0 0 0 0 0 0 0 0 0 0 0 0 0 0 127 0"/>
<feOffset dy="5"/>
<feGaussianBlur stdDeviation="5"/>
<feColorMatrix type="matrix" values="0 0 0 0 0 0 0 0 0 0 0 0 0 0 0 0 0 0 0.35 0"/>
<feBlend mode="normal" in2="BackgroundImageFix" result="effect1_dropShadow"/>
<feBlend mode="normal" in="SourceGraphic" in2="effect1_dropShadow" result="shape"/>
</filter>
<linearGradient id="paint0_linear" x1="10.7372" y1="5.49566" x2="10.7372" y2="36.0212" gradientUnits="userSpaceOnUse">
<stop stop-color="#FF5665"/>
<stop offset="1" stop-color="#E23342"/>
</linearGradient>
</defs>
</svg>
