<svg width="40" height="40" viewBox="0 0 40 40" fill="none" xmlns="http://www.w3.org/2000/svg">
<rect width="40" height="40" rx="10" fill="url(#paint0_linear)"/>
<mask id="mask0" mask-type="alpha" maskUnits="userSpaceOnUse" x="0" y="0" width="40" height="40">
<rect width="40" height="40" rx="10" fill="white"/>
</mask>
<g mask="url(#mask0)">
<path fill-rule="evenodd" clip-rule="evenodd" d="M20 10C14.48 10 10 14.48 10 20C10 25.52 14.48 30 20 30C25.52 30 30 25.52 30 20C30 14.48 25.52 10 20 10ZM12 20C12 15.58 15.58 12 20 12C21.85 12 23.55 12.63 24.9 13.69L13.69 24.9C12.63 23.55 12 21.85 12 20ZM15.1 26.31C16.45 27.37 18.15 28 20 28C24.42 28 28 24.42 28 20C28 18.15 27.37 16.45 26.31 15.1L15.1 26.31Z" fill="white"/>
<path d="M24.9 13.69L25.0768 13.8668L25.2761 13.6675L25.0544 13.4934L24.9 13.69ZM13.69 24.9L13.4934 25.0544L13.6675 25.2761L13.8668 25.0768L13.69 24.9ZM15.1 26.31L14.9232 26.1332L14.7239 26.3325L14.9456 26.5066L15.1 26.31ZM26.31 15.1L26.5066 14.9456L26.3325 14.7239L26.1332 14.9232L26.31 15.1ZM10.25 20C10.25 14.6181 14.6181 10.25 20 10.25V9.75C14.3419 9.75 9.75 14.3419 9.75 20H10.25ZM20 29.75C14.6181 29.75 10.25 25.3819 10.25 20H9.75C9.75 25.6581 14.3419 30.25 20 30.25V29.75ZM29.75 20C29.75 25.3819 25.3819 29.75 20 29.75V30.25C25.6581 30.25 30.25 25.6581 30.25 20H29.75ZM20 10.25C25.3819 10.25 29.75 14.6181 29.75 20H30.25C30.25 14.3419 25.6581 9.75 20 9.75V10.25ZM20 11.75C15.4419 11.75 11.75 15.4419 11.75 20H12.25C12.25 15.7181 15.7181 12.25 20 12.25V11.75ZM25.0544 13.4934C23.6618 12.3999 21.9078 11.75 20 11.75V12.25C21.7922 12.25 23.4382 12.8601 24.7456 13.8866L25.0544 13.4934ZM13.8668 25.0768L25.0768 13.8668L24.7232 13.5132L13.5132 24.7232L13.8668 25.0768ZM11.75 20C11.75 21.9078 12.3999 23.6618 13.4934 25.0544L13.8866 24.7456C12.8601 23.4382 12.25 21.7922 12.25 20H11.75ZM20 27.75C18.2078 27.75 16.5618 27.1399 15.2544 26.1134L14.9456 26.5066C16.3382 27.6001 18.0922 28.25 20 28.25V27.75ZM27.75 20C27.75 24.2819 24.2819 27.75 20 27.75V28.25C24.5581 28.25 28.25 24.5581 28.25 20H27.75ZM26.1134 15.2544C27.1399 16.5618 27.75 18.2078 27.75 20H28.25C28.25 18.0922 27.6001 16.3382 26.5066 14.9456L26.1134 15.2544ZM15.2768 26.4868L26.4868 15.2768L26.1332 14.9232L14.9232 26.1332L15.2768 26.4868Z" fill="white"/>
</g>
<defs>
<linearGradient id="paint0_linear" x1="0.921553" y1="0.619581" x2="0.921553" y2="38.7765" gradientUnits="userSpaceOnUse">
<stop stop-color="#FF5665"/>
<stop offset="1" stop-color="#E23342"/>
</linearGradient>
</defs>
</svg>
