<svg width="40" height="40" viewBox="0 0 40 40" fill="none" xmlns="http://www.w3.org/2000/svg">
<mask id="mask0" mask-type="alpha" maskUnits="userSpaceOnUse" x="0" y="0" width="40" height="40">
<rect width="40" height="40" rx="10" fill="white"/>
</mask>
<g mask="url(#mask0)">
<path fill-rule="evenodd" clip-rule="evenodd" d="M8.29896 30.1858C7.51957 30.1858 7 29.5662 7 28.6368V17.7939H32.9797V28.6368C32.9797 29.5662 32.4601 30.1858 31.6807 30.1858H8.29896ZM25.8353 22.3012C25.3157 21.7816 24.6662 21.3919 23.8868 21.3919C22.4579 21.3919 21.2888 22.561 21.2888 23.9899C21.2888 25.4188 22.4579 26.5879 23.8868 26.5879C24.6662 26.5879 25.3157 26.1982 25.8353 25.6786C26.3548 26.1982 27.0044 26.5879 27.7837 26.5879C29.2126 26.5879 30.3817 25.4188 30.3817 23.9899C30.3817 22.561 29.2126 21.3919 27.7837 21.3919C27.0044 21.3919 26.3548 21.7816 25.8353 22.3012Z" fill="white"/>
<path d="M31.6807 10H8.29896C7.51957 10 7 10.5196 7 11.299V13.897H32.9797V11.299C32.9797 10.5196 32.4601 10 31.6807 10Z" fill="white"/>
</g>
</svg>
