<svg width="40" height="40" viewBox="0 0 40 40" fill="none" xmlns="http://www.w3.org/2000/svg">
<rect width="40" height="40" rx="10" fill="#7387DC"/>
<mask id="mask0" mask-type="alpha" maskUnits="userSpaceOnUse" x="0" y="0" width="40" height="40">
<rect width="40" height="40" rx="10" fill="white"/>
</mask>
<g mask="url(#mask0)">
<path fill-rule="evenodd" clip-rule="evenodd" d="M26.0045 28.2441C25.8207 28.2526 25.6439 28.1732 25.5281 28.0302L24.8899 27.2455C24.7721 27.1004 24.7307 26.9077 24.7787 26.7271C24.8267 26.5464 24.9583 26.3997 25.1326 26.3322C26.3112 25.9191 27.3363 25.1573 28.0719 24.1479C23.1397 27.2569 16.8603 27.2569 11.9281 24.1479C12.6637 25.1573 13.6888 25.9191 14.8674 26.3322C15.0417 26.3997 15.1733 26.5464 15.2213 26.7271C15.2693 26.9077 15.2279 27.1004 15.1101 27.2455L14.4719 28.0302C14.3561 28.1732 14.1793 28.2526 13.9955 28.2441C11.6149 28.2256 9.38668 27.07 8 25.1349C8.06667 20.9698 9.07783 16.8741 10.9573 13.1565C12.5905 11.8881 14.5658 11.1371 16.6292 11.0001C16.6945 10.9989 16.757 11.0265 16.8 11.0756C16.85 11.1308 16.8682 11.2078 16.8481 11.2795C16.828 11.3512 16.7725 11.4076 16.7011 11.4288C14.9475 11.9308 13.3144 12.7844 11.9011 13.9376C16.9458 11.1703 23.0542 11.1703 28.0989 13.9376C26.6856 12.7844 25.0525 11.9308 23.2989 11.4288C23.2275 11.4076 23.172 11.3512 23.1519 11.2795C23.1318 11.2078 23.15 11.1308 23.2 11.0756C23.243 11.0265 23.3055 10.9989 23.3708 11.0001C25.4342 11.1371 27.4095 11.8881 29.0427 13.1565C30.9222 16.8741 31.9333 20.9698 32 25.1349C30.6133 27.07 28.3851 28.2256 26.0045 28.2441ZM16.2517 18.663C15.3117 18.5829 14.4188 19.0878 14.003 19.9346C13.5871 20.7815 13.7335 21.7967 14.3717 22.4916C15.0098 23.1864 16.009 23.4185 16.8881 23.0761C17.7672 22.7337 18.3461 21.8869 18.3461 20.9434C18.3973 19.7354 17.4597 18.7145 16.2517 18.663ZM21.4996 19.9346C21.9154 19.0878 22.8083 18.5829 23.7483 18.663C24.9563 18.7145 25.8939 19.7354 25.8427 20.9434C25.8427 21.8869 25.2638 22.7337 24.3847 23.0761C23.5056 23.4185 22.5065 23.1864 21.8683 22.4916C21.2301 21.7967 21.0837 20.7815 21.4996 19.9346Z" fill="white"/>
</g>
</svg>
