<svg width="40" height="40" viewBox="0 0 40 40" fill="none" xmlns="http://www.w3.org/2000/svg">
<rect width="40" height="40" rx="10" fill="url(#paint0_linear)"/>
<mask id="mask0" mask-type="alpha" maskUnits="userSpaceOnUse" x="0" y="0" width="40" height="40">
<rect width="40" height="40" rx="10" fill="white"/>
</mask>
<g mask="url(#mask0)">
<path d="M27.0595 12.9442C25.0199 10.9046 22.1295 9.72838 18.9512 10.0537C14.359 10.5167 10.5802 14.2455 10.0671 18.8377C9.37895 24.9064 14.0712 30.0241 19.9898 30.0241C23.9814 30.0241 27.4099 27.6842 29.0115 24.3183C29.4119 23.4799 28.8113 22.5164 27.8853 22.5164C27.4224 22.5164 26.9844 22.7667 26.7842 23.1796C25.3703 26.2202 21.9793 28.1472 18.2755 27.3213C15.4977 26.7082 13.2579 24.4434 12.6698 21.6656C11.6187 16.8106 15.31 12.5062 19.9898 12.5062C22.0669 12.5062 23.9188 13.3696 25.2702 14.7335L23.3807 16.6229C22.5924 17.4112 23.143 18.7626 24.2566 18.7626H28.7487C29.4369 18.7626 30 18.1995 30 17.5113V13.0192C30 11.9056 28.6486 11.3425 27.8603 12.1308L27.0595 12.9442Z" fill="white"/>
</g>
<defs>
<linearGradient id="paint0_linear" x1="0.921553" y1="0.619581" x2="0.921553" y2="38.7765" gradientUnits="userSpaceOnUse">
<stop stop-color="#FF5665"/>
<stop offset="1" stop-color="#E23342"/>
</linearGradient>
</defs>
</svg>
