<svg width="40" height="40" viewBox="0 0 40 40" fill="none" xmlns="http://www.w3.org/2000/svg">
<rect width="40" height="40" rx="10" fill="url(#paint0_linear)"/>
<mask id="mask0" mask-type="alpha" maskUnits="userSpaceOnUse" x="0" y="0" width="40" height="40">
<rect width="40" height="40" rx="10" fill="white"/>
</mask>
<g mask="url(#mask0)">
<rect width="39.9764" height="39.9764" fill="#92BA43"/>
<path fill-rule="evenodd" clip-rule="evenodd" d="M22.6123 30L11.2061 27.8625C11.2061 27.8625 12.6698 16.5425 12.7248 16.1438C12.7986 15.6163 12.8161 15.5988 13.3761 15.4225C13.4242 15.4071 13.6509 15.3369 14.0049 15.2272L14.0054 15.2271L14.0071 15.2265L14.008 15.2262C14.3148 15.1312 14.7169 15.0066 15.1811 14.8625C15.5673 13.225 16.7998 10 19.3786 10C19.7161 10 20.1061 10.1813 20.4211 10.5975L20.4523 10.596C20.4731 10.5949 20.494 10.5938 20.5148 10.5938C21.6211 10.5938 22.2511 11.5375 22.6073 12.5638C22.8726 12.482 23.0613 12.4233 23.1494 12.3959L23.1495 12.3959L23.2048 12.3788C23.2936 12.3525 23.5223 12.3175 23.6398 12.435C23.7573 12.5525 24.8248 13.6112 24.8248 13.6112C24.8248 13.6112 26.3623 13.7262 26.4348 13.7313C26.5073 13.7375 26.5961 13.7938 26.6098 13.8937C26.6236 13.995 28.7923 28.6625 28.7923 28.6625L22.6123 30ZM14.9097 20.5232C14.9097 21.7695 15.6081 22.3346 16.2203 22.8301C16.6981 23.2168 17.1234 23.561 17.1234 24.1532C17.1234 24.4795 16.8934 24.927 16.3259 24.927C15.4572 24.927 14.4272 24.0433 14.4272 24.0433L13.9034 25.7745C13.9034 25.7745 14.9047 26.9932 16.8622 26.9932C18.4947 26.9932 19.7047 25.7645 19.7047 23.857C19.7047 22.3906 18.7178 21.666 17.9376 21.0932C17.4276 20.7187 17.0059 20.4091 17.0059 19.9995C17.0059 19.8108 17.0659 19.057 18.2659 19.057C19.0847 19.057 19.7522 19.4132 19.7522 19.4132L20.5147 17.147C20.5147 17.147 19.9997 16.8482 18.9559 16.8482C16.2509 16.8482 14.9097 18.6558 14.9097 20.5232ZM19.3077 10.6923C19.4189 10.6923 19.5314 10.7298 19.6389 10.8035C18.8127 11.1923 17.9264 12.1723 17.5514 14.1285C17.0792 14.2755 16.6154 14.4187 16.1793 14.5533L16.1789 14.5535L16.1784 14.5536L15.9764 14.616C16.4152 13.1247 17.4552 10.6923 19.3077 10.6923ZM18.3421 13.8839C19.0258 13.6726 19.7071 13.4614 20.3358 13.2664V13.1551C20.3358 12.3851 20.2333 11.8151 20.0746 11.4176C19.4458 11.6876 18.7258 12.4026 18.3421 13.8839ZM21.0119 12.8495C21.0119 12.2108 20.9244 11.6983 20.7819 11.2908C21.3519 11.362 21.7319 12.012 21.9769 12.7582L21.8618 12.7939C21.6043 12.8738 21.318 12.9626 21.0119 13.057V12.8495Z" fill="white"/>
</g>
<defs>
<linearGradient id="paint0_linear" x1="0.921553" y1="0.619581" x2="0.921553" y2="38.7765" gradientUnits="userSpaceOnUse">
<stop stop-color="#FC7818"/>
<stop offset="1" stop-color="#FC5818"/>
</linearGradient>
</defs>
</svg>
