<svg width="40" height="40" viewBox="0 0 40 40" fill="none" xmlns="http://www.w3.org/2000/svg">
<rect width="40" height="40" rx="10" fill="url(#paint0_linear)"/>
<mask id="mask0" mask-type="alpha" maskUnits="userSpaceOnUse" x="0" y="0" width="40" height="40">
<rect width="40" height="40" rx="10" fill="white"/>
</mask>
<g mask="url(#mask0)">
<rect width="39.9764" height="39.9764" fill="#50ABF1"/>
<path d="M8.00136 27.3211C10.1742 28.6991 12.7516 29.4966 15.5145 29.4966C23.2766 29.4966 29.5688 23.2037 29.5688 15.4424C29.5688 15.2486 29.5647 15.0562 29.5572 14.8645C29.838 14.6435 31.5744 13.2518 32 12.3571C32 12.3571 30.5899 12.9431 29.2099 13.0811C29.2071 13.0811 29.2038 13.0818 29.201 13.0818C29.201 13.0818 29.2038 13.0804 29.2085 13.0771C29.3357 12.9921 31.1135 11.7819 31.3542 10.3399C31.3542 10.3399 30.3568 10.8723 28.9603 11.338C28.7292 11.4148 28.4872 11.4903 28.2376 11.5603C27.3375 10.5996 26.058 10 24.6378 10C21.9135 10 19.706 12.2069 19.706 14.929C19.706 15.3131 19.7502 15.687 19.8338 16.046C19.4531 16.0304 13.6559 15.7054 9.71197 10.9293C9.71197 10.9293 7.35489 14.1471 11.1166 17.456C11.1166 17.456 9.97309 17.4105 8.98655 16.821C8.98655 16.821 8.62419 20.7193 12.8842 21.7161C12.8842 21.7161 12.046 22.0336 10.7087 21.8072C10.7087 21.8072 11.4565 24.957 15.2414 25.2514C15.2414 25.2514 12.2485 27.9551 8 27.3207L8.00136 27.3211Z" fill="white"/>
</g>
<defs>
<linearGradient id="paint0_linear" x1="0.921553" y1="0.619581" x2="0.921553" y2="38.7765" gradientUnits="userSpaceOnUse">
<stop stop-color="#FC7818"/>
<stop offset="1" stop-color="#FC5818"/>
</linearGradient>
</defs>
</svg>
